<?xml version="1.0" standalone="no"?><!DOCTYPE svg PUBLIC "-//W3C//DTD SVG 1.1//EN" "http://www.w3.org/Graphics/SVG/1.1/DTD/svg11.dtd"><svg t="1636201333838" class="icon" viewBox="0 0 1024 1024" version="1.1" xmlns="http://www.w3.org/2000/svg" p-id="3229" xmlns:xlink="http://www.w3.org/1999/xlink" width="200" height="200"><defs><style type="text/css"></style></defs><path d="M437.824 573.856c26.517333 0 48.042667 21.194667 48.042667 47.317333v152.832c0 26.154667-21.525333 47.328-48.042667 47.328H282.698667C256.181333 821.333333 234.666667 800.16 234.666667 774.005333V621.173333c0-26.122667 21.514667-47.317333 48.032-47.317333h155.125333z m314.016 0c26.506667 0 48.032 21.194667 48.032 47.317333v152.832c0 26.154667-21.525333 47.328-48.032 47.328H596.693333c-26.538667 0-48.032-21.173333-48.032-47.328V621.173333c0-26.122667 21.493333-47.317333 48.032-47.317333h155.136z m-43.594667-336L817.930667 345.92a46.848 46.848 0 0 1 0 66.944L708.245333 520.928a48.565333 48.565333 0 0 1-67.946666 0L530.613333 412.864a46.848 46.848 0 0 1 0-66.944L640.298667 237.866667a48.565333 48.565333 0 0 1 67.946666 0z m-270.421333 17.813333c26.517333 0 48.042667 21.173333 48.042667 47.317334v152.832c0 26.133333-21.525333 47.328-48.042667 47.328H282.698667c-26.517333 0-48.032-21.205333-48.032-47.328V302.986667c0-26.144 21.514667-47.317333 48.032-47.317334h155.125333z" fill="#e6e6e6" p-id="3230"></path></svg>