<?xml version="1.0" standalone="no"?><!DOCTYPE svg PUBLIC "-//W3C//DTD SVG 1.1//EN" "http://www.w3.org/Graphics/SVG/1.1/DTD/svg11.dtd"><svg t="1634694118072" class="icon" viewBox="0 0 1040 1024" version="1.1" xmlns="http://www.w3.org/2000/svg" p-id="5087" xmlns:xlink="http://www.w3.org/1999/xlink" width="203.125" height="200"><defs><style type="text/css"></style></defs><path d="M1020.076628 500.229885 519.846743 0 19.616858 500.229885c-15.693487 15.693487-15.693487 39.233716 0 54.927203 15.693487 15.693487 39.233716 15.693487 54.927203 0l56.888889-56.888889 3.923372 474.727969c0 27.463602 23.54023 51.003831 51.003831 51.003831l665.011494 0c27.463602 0 51.003831-23.54023 51.003831-51.003831l5.885057-472.766284 56.888889 56.888889c7.846743 7.846743 17.655172 11.770115 27.463602 11.770115 9.808429 0 19.616858-3.923372 27.463602-11.770115C1033.808429 539.463602 1033.808429 515.923372 1020.076628 500.229885zM602.237548 980.842912l-162.819923 0 0-162.819923c0-17.655172 23.54023-41.195402 41.195402-41.195402l82.390805 0c17.655172 0 41.195402 23.54023 41.195402 41.195402L604.199234 980.842912z" p-id="5088"></path></svg>